<mxfile host="app.diagrams.net" modified="2023-10-03T06:11:58.473Z" agent="Mozilla/5.0 (Macintosh; Intel Mac OS X 10_15_7) AppleWebKit/537.36 (KHTML, like Gecko) Chrome/117.0.0.0 Safari/537.36" etag="072x4C1keX9uHYw2xtFb" version="21.7.5" type="github">
  <diagram id="C5RBs43oDa-KdzZeNtuy" name="Page-1">
    <mxGraphModel dx="2739" dy="2232" grid="1" gridSize="10" guides="1" tooltips="1" connect="1" arrows="1" fold="1" page="1" pageScale="1" pageWidth="827" pageHeight="1169" math="0" shadow="0">
      <root>
        <mxCell id="WIyWlLk6GJQsqaUBKTNV-0" />
        <mxCell id="WIyWlLk6GJQsqaUBKTNV-1" parent="WIyWlLk6GJQsqaUBKTNV-0" />
        <mxCell id="fT9HePyaqybUsVkGW_sH-12" value="AirAttack" style="swimlane;fontStyle=1;align=center;verticalAlign=top;childLayout=stackLayout;horizontal=1;startSize=26;horizontalStack=0;resizeParent=1;resizeParentMax=0;resizeLast=0;collapsible=1;marginBottom=0;whiteSpace=wrap;html=1;" vertex="1" parent="WIyWlLk6GJQsqaUBKTNV-1">
          <mxGeometry x="-580" y="315" width="230" height="120" as="geometry" />
        </mxCell>
        <mxCell id="fT9HePyaqybUsVkGW_sH-13" value="- power&lt;br&gt;" style="text;strokeColor=none;fillColor=none;align=left;verticalAlign=top;spacingLeft=4;spacingRight=4;overflow=hidden;rotatable=0;points=[[0,0.5],[1,0.5]];portConstraint=eastwest;whiteSpace=wrap;html=1;" vertex="1" parent="fT9HePyaqybUsVkGW_sH-12">
          <mxGeometry y="26" width="230" height="34" as="geometry" />
        </mxCell>
        <mxCell id="fT9HePyaqybUsVkGW_sH-14" value="" style="line;strokeWidth=1;fillColor=none;align=left;verticalAlign=middle;spacingTop=-1;spacingLeft=3;spacingRight=3;rotatable=0;labelPosition=right;points=[];portConstraint=eastwest;strokeColor=inherit;" vertex="1" parent="fT9HePyaqybUsVkGW_sH-12">
          <mxGeometry y="60" width="230" height="8" as="geometry" />
        </mxCell>
        <mxCell id="fT9HePyaqybUsVkGW_sH-15" value="+ airAttack(AirUnit airUnit)&lt;br&gt;+ getPower()&lt;br&gt;+ setPower(int power)" style="text;strokeColor=none;fillColor=none;align=left;verticalAlign=top;spacingLeft=4;spacingRight=4;overflow=hidden;rotatable=0;points=[[0,0.5],[1,0.5]];portConstraint=eastwest;whiteSpace=wrap;html=1;" vertex="1" parent="fT9HePyaqybUsVkGW_sH-12">
          <mxGeometry y="68" width="230" height="52" as="geometry" />
        </mxCell>
        <mxCell id="fT9HePyaqybUsVkGW_sH-16" value="GroundAttack" style="swimlane;fontStyle=1;align=center;verticalAlign=top;childLayout=stackLayout;horizontal=1;startSize=26;horizontalStack=0;resizeParent=1;resizeParentMax=0;resizeLast=0;collapsible=1;marginBottom=0;whiteSpace=wrap;html=1;" vertex="1" parent="WIyWlLk6GJQsqaUBKTNV-1">
          <mxGeometry x="-310" y="315" width="230" height="120" as="geometry" />
        </mxCell>
        <mxCell id="fT9HePyaqybUsVkGW_sH-17" value="- power&lt;br&gt;" style="text;strokeColor=none;fillColor=none;align=left;verticalAlign=top;spacingLeft=4;spacingRight=4;overflow=hidden;rotatable=0;points=[[0,0.5],[1,0.5]];portConstraint=eastwest;whiteSpace=wrap;html=1;" vertex="1" parent="fT9HePyaqybUsVkGW_sH-16">
          <mxGeometry y="26" width="230" height="34" as="geometry" />
        </mxCell>
        <mxCell id="fT9HePyaqybUsVkGW_sH-18" value="" style="line;strokeWidth=1;fillColor=none;align=left;verticalAlign=middle;spacingTop=-1;spacingLeft=3;spacingRight=3;rotatable=0;labelPosition=right;points=[];portConstraint=eastwest;strokeColor=inherit;" vertex="1" parent="fT9HePyaqybUsVkGW_sH-16">
          <mxGeometry y="60" width="230" height="8" as="geometry" />
        </mxCell>
        <mxCell id="fT9HePyaqybUsVkGW_sH-19" value="+ groundAttack(GroundUnit groundUnit)&lt;br&gt;+ getPower()&lt;br&gt;+ setPower(int power)" style="text;strokeColor=none;fillColor=none;align=left;verticalAlign=top;spacingLeft=4;spacingRight=4;overflow=hidden;rotatable=0;points=[[0,0.5],[1,0.5]];portConstraint=eastwest;whiteSpace=wrap;html=1;" vertex="1" parent="fT9HePyaqybUsVkGW_sH-16">
          <mxGeometry y="68" width="230" height="52" as="geometry" />
        </mxCell>
        <mxCell id="fT9HePyaqybUsVkGW_sH-30" value="&amp;lt;&amp;lt;abstract&amp;gt;&amp;gt; Unit" style="swimlane;fontStyle=1;align=center;verticalAlign=top;childLayout=stackLayout;horizontal=1;startSize=26;horizontalStack=0;resizeParent=1;resizeParentMax=0;resizeLast=0;collapsible=1;marginBottom=0;whiteSpace=wrap;html=1;" vertex="1" parent="WIyWlLk6GJQsqaUBKTNV-1">
          <mxGeometry x="-218" y="-560" width="375" height="168" as="geometry" />
        </mxCell>
        <mxCell id="fT9HePyaqybUsVkGW_sH-31" value="-name : String&lt;br&gt;-power : int&lt;br&gt;-depense: int" style="text;strokeColor=none;fillColor=none;align=left;verticalAlign=top;spacingLeft=4;spacingRight=4;overflow=hidden;rotatable=0;points=[[0,0.5],[1,0.5]];portConstraint=eastwest;whiteSpace=wrap;html=1;" vertex="1" parent="fT9HePyaqybUsVkGW_sH-30">
          <mxGeometry y="26" width="375" height="64" as="geometry" />
        </mxCell>
        <mxCell id="fT9HePyaqybUsVkGW_sH-32" value="" style="line;strokeWidth=1;fillColor=none;align=left;verticalAlign=middle;spacingTop=-1;spacingLeft=3;spacingRight=3;rotatable=0;labelPosition=right;points=[];portConstraint=eastwest;strokeColor=inherit;" vertex="1" parent="fT9HePyaqybUsVkGW_sH-30">
          <mxGeometry y="90" width="375" height="8" as="geometry" />
        </mxCell>
        <mxCell id="fT9HePyaqybUsVkGW_sH-33" value="+Zerg(name:string, power : int, depense : int)&lt;br&gt;+getPower() : int&lt;br&gt;+getDepense() : int&lt;br&gt;+setDepense() : void" style="text;strokeColor=none;fillColor=none;align=left;verticalAlign=top;spacingLeft=4;spacingRight=4;overflow=hidden;rotatable=0;points=[[0,0.5],[1,0.5]];portConstraint=eastwest;whiteSpace=wrap;html=1;" vertex="1" parent="fT9HePyaqybUsVkGW_sH-30">
          <mxGeometry y="98" width="375" height="70" as="geometry" />
        </mxCell>
        <mxCell id="fT9HePyaqybUsVkGW_sH-56" style="edgeStyle=orthogonalEdgeStyle;rounded=0;orthogonalLoop=1;jettySize=auto;html=1;" edge="1" parent="WIyWlLk6GJQsqaUBKTNV-1" source="fT9HePyaqybUsVkGW_sH-34" target="fT9HePyaqybUsVkGW_sH-47">
          <mxGeometry relative="1" as="geometry" />
        </mxCell>
        <mxCell id="fT9HePyaqybUsVkGW_sH-34" value="Mutalisk" style="swimlane;fontStyle=1;align=center;verticalAlign=top;childLayout=stackLayout;horizontal=1;startSize=26;horizontalStack=0;resizeParent=1;resizeParentMax=0;resizeLast=0;collapsible=1;marginBottom=0;whiteSpace=wrap;html=1;" vertex="1" parent="WIyWlLk6GJQsqaUBKTNV-1">
          <mxGeometry x="-400" y="30" width="240" height="158" as="geometry" />
        </mxCell>
        <mxCell id="fT9HePyaqybUsVkGW_sH-35" value="-airAttack&lt;br&gt;-groundAttack" style="text;strokeColor=none;fillColor=none;align=left;verticalAlign=top;spacingLeft=4;spacingRight=4;overflow=hidden;rotatable=0;points=[[0,0.5],[1,0.5]];portConstraint=eastwest;whiteSpace=wrap;html=1;" vertex="1" parent="fT9HePyaqybUsVkGW_sH-34">
          <mxGeometry y="26" width="240" height="34" as="geometry" />
        </mxCell>
        <mxCell id="fT9HePyaqybUsVkGW_sH-36" value="" style="line;strokeWidth=1;fillColor=none;align=left;verticalAlign=middle;spacingTop=-1;spacingLeft=3;spacingRight=3;rotatable=0;labelPosition=right;points=[];portConstraint=eastwest;strokeColor=inherit;" vertex="1" parent="fT9HePyaqybUsVkGW_sH-34">
          <mxGeometry y="60" width="240" height="28" as="geometry" />
        </mxCell>
        <mxCell id="fT9HePyaqybUsVkGW_sH-37" value="+ Mutalisk(String name)&lt;br&gt;+ airAttack(AirUnit airUnit)&lt;br&gt;+ groundAttack(GroundUnit groundUnit)&lt;br&gt;+ toString()" style="text;strokeColor=none;fillColor=none;align=left;verticalAlign=top;spacingLeft=4;spacingRight=4;overflow=hidden;rotatable=0;points=[[0,0.5],[1,0.5]];portConstraint=eastwest;whiteSpace=wrap;html=1;" vertex="1" parent="fT9HePyaqybUsVkGW_sH-34">
          <mxGeometry y="88" width="240" height="70" as="geometry" />
        </mxCell>
        <mxCell id="fT9HePyaqybUsVkGW_sH-38" value="" style="endArrow=diamondThin;endFill=1;endSize=24;html=1;rounded=0;" edge="1" parent="WIyWlLk6GJQsqaUBKTNV-1" target="fT9HePyaqybUsVkGW_sH-34">
          <mxGeometry width="160" relative="1" as="geometry">
            <mxPoint x="-450.00324873096463" y="315" as="sourcePoint" />
            <mxPoint x="-380.1047715736041" y="213" as="targetPoint" />
          </mxGeometry>
        </mxCell>
        <mxCell id="fT9HePyaqybUsVkGW_sH-39" value="" style="endArrow=diamondThin;endFill=1;endSize=24;html=1;rounded=0;exitX=0.383;exitY=-0.008;exitDx=0;exitDy=0;exitPerimeter=0;" edge="1" parent="WIyWlLk6GJQsqaUBKTNV-1" source="fT9HePyaqybUsVkGW_sH-16" target="fT9HePyaqybUsVkGW_sH-34">
          <mxGeometry width="160" relative="1" as="geometry">
            <mxPoint x="-290.00324873096463" y="315" as="sourcePoint" />
            <mxPoint x="-220.10477157360413" y="213" as="targetPoint" />
          </mxGeometry>
        </mxCell>
        <mxCell id="fT9HePyaqybUsVkGW_sH-41" value="extends" style="text;html=1;strokeColor=none;fillColor=none;align=center;verticalAlign=middle;whiteSpace=wrap;rounded=0;" vertex="1" parent="WIyWlLk6GJQsqaUBKTNV-1">
          <mxGeometry x="-120" y="-364" width="60" height="30" as="geometry" />
        </mxCell>
        <mxCell id="fT9HePyaqybUsVkGW_sH-51" style="edgeStyle=orthogonalEdgeStyle;rounded=0;orthogonalLoop=1;jettySize=auto;html=1;" edge="1" parent="WIyWlLk6GJQsqaUBKTNV-1" source="fT9HePyaqybUsVkGW_sH-43" target="fT9HePyaqybUsVkGW_sH-30">
          <mxGeometry relative="1" as="geometry" />
        </mxCell>
        <mxCell id="fT9HePyaqybUsVkGW_sH-43" value="&amp;lt;&amp;lt;abstract&amp;gt;&amp;gt;AirUnit" style="swimlane;fontStyle=1;align=center;verticalAlign=top;childLayout=stackLayout;horizontal=1;startSize=26;horizontalStack=0;resizeParent=1;resizeParentMax=0;resizeLast=0;collapsible=1;marginBottom=0;whiteSpace=wrap;html=1;" vertex="1" parent="WIyWlLk6GJQsqaUBKTNV-1">
          <mxGeometry x="-177.5" y="-300" width="250" height="86" as="geometry" />
        </mxCell>
        <mxCell id="fT9HePyaqybUsVkGW_sH-44" value="&amp;nbsp;" style="text;strokeColor=none;fillColor=none;align=left;verticalAlign=top;spacingLeft=4;spacingRight=4;overflow=hidden;rotatable=0;points=[[0,0.5],[1,0.5]];portConstraint=eastwest;whiteSpace=wrap;html=1;" vertex="1" parent="fT9HePyaqybUsVkGW_sH-43">
          <mxGeometry y="26" width="250" height="26" as="geometry" />
        </mxCell>
        <mxCell id="fT9HePyaqybUsVkGW_sH-45" value="" style="line;strokeWidth=1;fillColor=none;align=left;verticalAlign=middle;spacingTop=-1;spacingLeft=3;spacingRight=3;rotatable=0;labelPosition=right;points=[];portConstraint=eastwest;strokeColor=inherit;" vertex="1" parent="fT9HePyaqybUsVkGW_sH-43">
          <mxGeometry y="52" width="250" height="8" as="geometry" />
        </mxCell>
        <mxCell id="fT9HePyaqybUsVkGW_sH-46" value="AirUnit(name;String, power : int, depense: int" style="text;strokeColor=none;fillColor=none;align=left;verticalAlign=top;spacingLeft=4;spacingRight=4;overflow=hidden;rotatable=0;points=[[0,0.5],[1,0.5]];portConstraint=eastwest;whiteSpace=wrap;html=1;" vertex="1" parent="fT9HePyaqybUsVkGW_sH-43">
          <mxGeometry y="60" width="250" height="26" as="geometry" />
        </mxCell>
        <mxCell id="fT9HePyaqybUsVkGW_sH-53" style="edgeStyle=orthogonalEdgeStyle;rounded=0;orthogonalLoop=1;jettySize=auto;html=1;exitX=0.5;exitY=0;exitDx=0;exitDy=0;" edge="1" parent="WIyWlLk6GJQsqaUBKTNV-1" source="fT9HePyaqybUsVkGW_sH-47" target="fT9HePyaqybUsVkGW_sH-43">
          <mxGeometry relative="1" as="geometry" />
        </mxCell>
        <mxCell id="fT9HePyaqybUsVkGW_sH-47" value="Zerg" style="swimlane;fontStyle=1;align=center;verticalAlign=top;childLayout=stackLayout;horizontal=1;startSize=26;horizontalStack=0;resizeParent=1;resizeParentMax=0;resizeLast=0;collapsible=1;marginBottom=0;whiteSpace=wrap;html=1;" vertex="1" parent="WIyWlLk6GJQsqaUBKTNV-1">
          <mxGeometry x="-177.5" y="-130" width="250" height="86" as="geometry" />
        </mxCell>
        <mxCell id="fT9HePyaqybUsVkGW_sH-48" value="&amp;nbsp;" style="text;strokeColor=none;fillColor=none;align=left;verticalAlign=top;spacingLeft=4;spacingRight=4;overflow=hidden;rotatable=0;points=[[0,0.5],[1,0.5]];portConstraint=eastwest;whiteSpace=wrap;html=1;" vertex="1" parent="fT9HePyaqybUsVkGW_sH-47">
          <mxGeometry y="26" width="250" height="26" as="geometry" />
        </mxCell>
        <mxCell id="fT9HePyaqybUsVkGW_sH-49" value="" style="line;strokeWidth=1;fillColor=none;align=left;verticalAlign=middle;spacingTop=-1;spacingLeft=3;spacingRight=3;rotatable=0;labelPosition=right;points=[];portConstraint=eastwest;strokeColor=inherit;" vertex="1" parent="fT9HePyaqybUsVkGW_sH-47">
          <mxGeometry y="52" width="250" height="8" as="geometry" />
        </mxCell>
        <mxCell id="fT9HePyaqybUsVkGW_sH-50" value="+Zerg(name;String, power : int, depense: int" style="text;strokeColor=none;fillColor=none;align=left;verticalAlign=top;spacingLeft=4;spacingRight=4;overflow=hidden;rotatable=0;points=[[0,0.5],[1,0.5]];portConstraint=eastwest;whiteSpace=wrap;html=1;" vertex="1" parent="fT9HePyaqybUsVkGW_sH-47">
          <mxGeometry y="60" width="250" height="26" as="geometry" />
        </mxCell>
        <mxCell id="fT9HePyaqybUsVkGW_sH-52" value="&amp;lt;&amp;lt;abstract&amp;gt;&amp;gt;" style="text;html=1;strokeColor=none;fillColor=none;align=center;verticalAlign=middle;whiteSpace=wrap;rounded=0;" vertex="1" parent="WIyWlLk6GJQsqaUBKTNV-1">
          <mxGeometry x="-177.5" y="-150" width="60" height="30" as="geometry" />
        </mxCell>
        <mxCell id="fT9HePyaqybUsVkGW_sH-54" value="extends" style="text;html=1;strokeColor=none;fillColor=none;align=center;verticalAlign=middle;whiteSpace=wrap;rounded=0;" vertex="1" parent="WIyWlLk6GJQsqaUBKTNV-1">
          <mxGeometry x="-110" y="-180" width="60" height="30" as="geometry" />
        </mxCell>
      </root>
    </mxGraphModel>
  </diagram>
</mxfile>
